<?xml version="1.0" encoding="utf-8"?>
<!-- Generator: Adobe Illustrator 28.1.0, SVG Export Plug-In . SVG Version: 6.00 Build 0)  -->
<svg version="1.1" id="Layer_1" xmlns="http://www.w3.org/2000/svg" xmlns:xlink="http://www.w3.org/1999/xlink" x="0px" y="0px"
	 viewBox="0 0 1024 1024" style="enable-background:new 0 0 1024 1024;" xml:space="preserve">
<style type="text/css">
	.st0{fill:#6C4DFF;}
</style>
<path class="st0" d="M791.9,965H129c-16.3,0-29.5-13.2-29.5-29.5l0,0V88.4c0-16.3,13.2-29.5,29.5-29.5l0,0h427.2v213.6
	c0,48.8,39.6,88.4,88.4,88.4l0,0h206.3v175.2c0,16.3,13.2,29.5,29.4,29.5c16.3,0,29.5-13.2,29.5-29.4c0,0,0,0,0-0.1V331.5V331
	c0-1.8-0.2-3.6-0.5-5.3v-1c-0.3-1.4-0.7-2.7-1.3-4l-0.7-1.5c-0.5-1.2-1.2-2.3-1.8-3.4c-0.2-0.4-0.5-0.8-0.7-1.2
	c-0.9-1.4-1.9-2.6-3.1-3.8L607,8.9l-0.7-0.7c-1.2-1-2.4-2-3.8-2.8l-1.3-0.9c-1-0.7-2.1-1.3-3.2-1.8l-1.3-0.7
	c-1.6-0.7-3.2-1.2-4.9-1.5C590,0.2,588.2,0,586.3,0H129C80.1,0,40.6,39.6,40.6,88.4c0,0,0,0,0,0v847.1c0,48.8,39.6,88.4,88.4,88.4
	l0,0h663c16.3,0,29.5-13.2,29.4-29.5C821.3,978.2,808.2,965,791.9,965z M644.6,302c-16.3,0-29.5-13.2-29.5-29.5l0,0V101.9L810.3,302
	H644.6z"/>
<path class="st0" d="M453.1,182.6H195.3c-16.3,0-29.5,13.2-29.4,29.5c0,16.3,13.2,29.4,29.4,29.4h257.8c16.3,0,29.5-13.2,29.5-29.5
	S469.3,182.6,453.1,182.6L453.1,182.6z M482.5,403.6c0-16.3-13.2-29.5-29.5-29.5H195.3c-16.3,0-29.5,13.2-29.5,29.5
	c0,16.3,13.2,29.5,29.5,29.5h257.8C469.3,433.1,482.5,419.9,482.5,403.6L482.5,403.6z M357.3,565.7H195.3
	c-16.3,0-29.5,13.2-29.4,29.5c0,16.3,13.2,29.4,29.4,29.4h162.1c16.3,0,29.5-13.2,29.5-29.4C386.8,578.9,373.6,565.7,357.3,565.7
	C357.3,565.7,357.3,565.7,357.3,565.7z M357.3,757.2H195.3c-16.3,0-29.5,13.2-29.4,29.5c0,16.3,13.2,29.4,29.4,29.4h162.1
	c16.3,0,29.5-13.2,29.5-29.4C386.8,770.4,373.6,757.2,357.3,757.2C357.3,757.2,357.3,757.2,357.3,757.2z M974.8,973.6l-134-133.8
	c62.4-85.4,43.8-205.2-41.6-267.6S594,528.3,531.6,613.7S487.8,819,573.2,881.4c67.3,49.2,158.7,49.2,226,0l133.9,134
	c11.5,11.5,30.2,11.5,41.7,0C986.3,1003.9,986.3,985.2,974.8,973.6L974.8,973.6z M554.9,727.1c0-72.9,59.1-132.1,132.1-132.1
	c72.9,0,132.1,59.1,132.1,132.1S760,859.2,687,859.2c0,0,0,0-0.1,0c-73,0.1-132.2-59-132.3-132c0,0,0,0,0-0.1H554.9z"/>
</svg>
